<svg width="11" height="14" viewBox="0 0 11 14" fill="none" xmlns="http://www.w3.org/2000/svg">
<path d="M3.02919 9.70742C2.80289 9.48678 2.92086 9.54899 2.37503 9.40655C2.12738 9.34181 1.90967 9.21739 1.7128 9.06835L0.531301 11.8928C0.416979 12.1662 0.630519 12.4633 0.93312 12.4521L2.30524 12.4011L3.24898 13.373C3.45731 13.5873 3.82293 13.5205 3.93726 13.2471L5.29271 10.0068C5.01042 10.1601 4.69714 10.25 4.37319 10.25C3.86538 10.25 3.3883 10.0573 3.02919 9.70742ZM10.4687 11.8928L9.2872 9.06835C9.09033 9.21765 8.87262 9.34181 8.62497 9.40655C8.07628 9.54975 8.19659 9.48729 7.97081 9.70742C7.6117 10.0573 7.13436 10.25 6.62655 10.25C6.3026 10.25 5.98932 10.1599 5.70703 10.0068L7.06248 13.2471C7.17681 13.5205 7.54269 13.5873 7.75076 13.373L8.69476 12.4011L10.0669 12.4521C10.3695 12.4633 10.583 12.1659 10.4687 11.8928ZM7.34894 9.13285C7.74685 8.73803 7.79243 8.77205 8.35909 8.62149C8.7208 8.52526 9.00361 8.2447 9.10048 7.88568C9.29527 7.1646 9.24475 7.25169 9.77626 6.72408C10.0411 6.4613 10.1445 6.07816 10.0476 5.71914C9.85308 4.99857 9.85282 5.09912 10.0476 4.37778C10.1445 4.01877 10.0411 3.63563 9.77626 3.37284C9.24475 2.84524 9.29527 2.93207 9.10048 2.21124C9.00361 1.85223 8.7208 1.57167 8.35909 1.47544C7.63305 1.28222 7.72055 1.33275 7.18852 0.804886C6.92368 0.542098 6.53749 0.439268 6.17577 0.535497C5.45 0.728462 5.5513 0.728716 4.82423 0.535497C4.46251 0.439268 4.07632 0.541845 3.81148 0.804886C3.27997 1.33249 3.36747 1.28222 2.64118 1.47544C2.27946 1.57167 1.99665 1.85223 1.89978 2.21124C1.70525 2.93207 1.75551 2.84524 1.224 3.37284C0.959161 3.63563 0.855517 4.01877 0.952651 4.37778C1.14718 5.09785 1.14744 4.9973 0.952651 5.71889C0.855777 6.07791 0.959161 6.46104 1.224 6.72408C1.75551 7.25169 1.70499 7.1646 1.89978 7.88568C1.99665 8.2447 2.27946 8.52526 2.64118 8.62149C3.22398 8.77637 3.26747 8.75199 3.65106 9.13285C3.99559 9.47485 4.5323 9.53604 4.94636 9.28062C5.11193 9.17813 5.30401 9.12371 5.50013 9.12371C5.69625 9.12371 5.88833 9.17813 6.0539 9.28062C6.4677 9.53604 7.00441 9.47485 7.34894 9.13285ZM3.04325 4.96785C3.04325 3.62141 4.14324 2.52989 5.5 2.52989C6.85676 2.52989 7.95675 3.62141 7.95675 4.96785C7.95675 6.31429 6.85676 7.40581 5.5 7.40581C4.14324 7.40581 3.04325 6.31429 3.04325 4.96785Z" fill="#A3ABB0"/>
</svg>
